<mxfile host="app.diagrams.net" modified="2021-08-18T09:43:07.144Z" agent="5.0 (Windows NT 10.0; Win64; x64) AppleWebKit/537.36 (KHTML, like Gecko) Chrome/92.0.4515.131 Safari/537.36" etag="07KFNpcQEA_PeBvC2USH" version="14.9.0" type="github">
  <diagram id="dO2qiLhL7tnFLpFk5E4g" name="Page-1">
    <mxGraphModel dx="652" dy="428" grid="1" gridSize="10" guides="1" tooltips="1" connect="1" arrows="1" fold="1" page="1" pageScale="1" pageWidth="827" pageHeight="1169" math="0" shadow="0">
      <root>
        <mxCell id="0" />
        <mxCell id="1" parent="0" />
        <mxCell id="Y-XFu3cOp23zqg_AY3rB-1" value="湖南农担" style="rounded=1;whiteSpace=wrap;html=1;fontSize=21;" vertex="1" parent="1">
          <mxGeometry x="170" y="60" width="120" height="60" as="geometry" />
        </mxCell>
        <mxCell id="Y-XFu3cOp23zqg_AY3rB-2" value="银行" style="rounded=1;whiteSpace=wrap;html=1;fontSize=21;" vertex="1" parent="1">
          <mxGeometry x="520" y="60" width="120" height="60" as="geometry" />
        </mxCell>
        <mxCell id="Y-XFu3cOp23zqg_AY3rB-14" value="" style="edgeStyle=orthogonalEdgeStyle;rounded=0;orthogonalLoop=1;jettySize=auto;html=1;fontSize=21;" edge="1" parent="1" source="Y-XFu3cOp23zqg_AY3rB-3" target="Y-XFu3cOp23zqg_AY3rB-4">
          <mxGeometry relative="1" as="geometry" />
        </mxCell>
        <mxCell id="Y-XFu3cOp23zqg_AY3rB-3" value="获客" style="rounded=1;whiteSpace=wrap;html=1;fontSize=21;" vertex="1" parent="1">
          <mxGeometry x="175" y="152" width="110" height="38" as="geometry" />
        </mxCell>
        <mxCell id="Y-XFu3cOp23zqg_AY3rB-15" style="edgeStyle=orthogonalEdgeStyle;rounded=0;orthogonalLoop=1;jettySize=auto;html=1;entryX=0;entryY=0.5;entryDx=0;entryDy=0;fontSize=21;" edge="1" parent="1" source="Y-XFu3cOp23zqg_AY3rB-4" target="Y-XFu3cOp23zqg_AY3rB-5">
          <mxGeometry relative="1" as="geometry" />
        </mxCell>
        <mxCell id="Y-XFu3cOp23zqg_AY3rB-4" value="调查评价" style="rounded=1;whiteSpace=wrap;html=1;fontSize=21;" vertex="1" parent="1">
          <mxGeometry x="175" y="235" width="110" height="40" as="geometry" />
        </mxCell>
        <mxCell id="Y-XFu3cOp23zqg_AY3rB-16" style="edgeStyle=orthogonalEdgeStyle;rounded=0;orthogonalLoop=1;jettySize=auto;html=1;fontSize=21;" edge="1" parent="1" source="Y-XFu3cOp23zqg_AY3rB-5">
          <mxGeometry relative="1" as="geometry">
            <mxPoint x="580" y="330" as="targetPoint" />
          </mxGeometry>
        </mxCell>
        <mxCell id="Y-XFu3cOp23zqg_AY3rB-5" value="调查评价" style="rounded=1;whiteSpace=wrap;html=1;fontSize=21;" vertex="1" parent="1">
          <mxGeometry x="530" y="245" width="100" height="39" as="geometry" />
        </mxCell>
        <mxCell id="Y-XFu3cOp23zqg_AY3rB-17" style="edgeStyle=orthogonalEdgeStyle;rounded=0;orthogonalLoop=1;jettySize=auto;html=1;entryX=0.5;entryY=0;entryDx=0;entryDy=0;fontSize=21;" edge="1" parent="1" source="Y-XFu3cOp23zqg_AY3rB-6" target="Y-XFu3cOp23zqg_AY3rB-7">
          <mxGeometry relative="1" as="geometry" />
        </mxCell>
        <mxCell id="Y-XFu3cOp23zqg_AY3rB-6" value="签署借款合同&lt;br style=&quot;font-size: 17px;&quot;&gt;和保证合同" style="rounded=1;whiteSpace=wrap;html=1;fontSize=17;" vertex="1" parent="1">
          <mxGeometry x="520" y="334" width="120" height="60" as="geometry" />
        </mxCell>
        <mxCell id="Y-XFu3cOp23zqg_AY3rB-18" style="edgeStyle=orthogonalEdgeStyle;rounded=0;orthogonalLoop=1;jettySize=auto;html=1;fontSize=21;" edge="1" parent="1" source="Y-XFu3cOp23zqg_AY3rB-7">
          <mxGeometry relative="1" as="geometry">
            <mxPoint x="580" y="460" as="targetPoint" />
          </mxGeometry>
        </mxCell>
        <mxCell id="Y-XFu3cOp23zqg_AY3rB-7" value="核保放款" style="rounded=1;whiteSpace=wrap;html=1;fontSize=21;" vertex="1" parent="1">
          <mxGeometry x="170" y="386" width="120" height="60" as="geometry" />
        </mxCell>
        <mxCell id="Y-XFu3cOp23zqg_AY3rB-19" style="edgeStyle=orthogonalEdgeStyle;rounded=0;orthogonalLoop=1;jettySize=auto;html=1;entryX=0.5;entryY=0;entryDx=0;entryDy=0;fontSize=21;" edge="1" parent="1" source="Y-XFu3cOp23zqg_AY3rB-8" target="Y-XFu3cOp23zqg_AY3rB-9">
          <mxGeometry relative="1" as="geometry" />
        </mxCell>
        <mxCell id="Y-XFu3cOp23zqg_AY3rB-8" value="银行放款" style="rounded=1;whiteSpace=wrap;html=1;fontSize=21;" vertex="1" parent="1">
          <mxGeometry x="520" y="464" width="120" height="60" as="geometry" />
        </mxCell>
        <mxCell id="Y-XFu3cOp23zqg_AY3rB-9" value="登记台账" style="rounded=1;whiteSpace=wrap;html=1;fontSize=21;" vertex="1" parent="1">
          <mxGeometry x="170" y="516" width="120" height="60" as="geometry" />
        </mxCell>
        <mxCell id="Y-XFu3cOp23zqg_AY3rB-20" style="edgeStyle=orthogonalEdgeStyle;rounded=0;orthogonalLoop=1;jettySize=auto;html=1;entryX=1;entryY=0.5;entryDx=0;entryDy=0;fontSize=21;" edge="1" parent="1" source="Y-XFu3cOp23zqg_AY3rB-11" target="Y-XFu3cOp23zqg_AY3rB-12">
          <mxGeometry relative="1" as="geometry" />
        </mxCell>
        <mxCell id="Y-XFu3cOp23zqg_AY3rB-11" value="客户还款" style="rounded=1;whiteSpace=wrap;html=1;fontSize=21;" vertex="1" parent="1">
          <mxGeometry x="520" y="574" width="120" height="60" as="geometry" />
        </mxCell>
        <mxCell id="Y-XFu3cOp23zqg_AY3rB-12" value="更新台账" style="rounded=1;whiteSpace=wrap;html=1;fontSize=21;" vertex="1" parent="1">
          <mxGeometry x="170" y="626" width="120" height="60" as="geometry" />
        </mxCell>
        <mxCell id="Y-XFu3cOp23zqg_AY3rB-21" value="出具担保函" style="text;html=1;strokeColor=none;fillColor=none;align=center;verticalAlign=middle;whiteSpace=wrap;rounded=0;fontSize=21;" vertex="1" parent="1">
          <mxGeometry x="324" y="225" width="180" height="20" as="geometry" />
        </mxCell>
        <mxCell id="Y-XFu3cOp23zqg_AY3rB-22" value="获取纸质合同" style="text;html=1;strokeColor=none;fillColor=none;align=center;verticalAlign=middle;whiteSpace=wrap;rounded=0;fontSize=21;" vertex="1" parent="1">
          <mxGeometry x="324" y="330" width="136" height="20" as="geometry" />
        </mxCell>
        <mxCell id="Y-XFu3cOp23zqg_AY3rB-23" value="发送放款通知书" style="text;html=1;strokeColor=none;fillColor=none;align=center;verticalAlign=middle;whiteSpace=wrap;rounded=0;fontSize=21;" vertex="1" parent="1">
          <mxGeometry x="348" y="426" width="156" height="20" as="geometry" />
        </mxCell>
        <mxCell id="Y-XFu3cOp23zqg_AY3rB-24" value="索取借据" style="text;html=1;strokeColor=none;fillColor=none;align=center;verticalAlign=middle;whiteSpace=wrap;rounded=0;fontSize=21;" vertex="1" parent="1">
          <mxGeometry x="324" y="504" width="156" height="20" as="geometry" />
        </mxCell>
        <mxCell id="Y-XFu3cOp23zqg_AY3rB-25" value="索取还款凭证" style="text;html=1;strokeColor=none;fillColor=none;align=center;verticalAlign=middle;whiteSpace=wrap;rounded=0;fontSize=21;" vertex="1" parent="1">
          <mxGeometry x="314" y="576" width="156" height="20" as="geometry" />
        </mxCell>
      </root>
    </mxGraphModel>
  </diagram>
</mxfile>
